<mxfile host="Electron" modified="2023-10-09T02:52:04.480Z" agent="Mozilla/5.0 (Windows NT 10.0; Win64; x64) AppleWebKit/537.36 (KHTML, like Gecko) draw.io/22.0.2 Chrome/114.0.5735.289 Electron/25.8.4 Safari/537.36" etag="Qu8KqEZGyJ4bjYA5S8uk" version="22.0.2" type="device">
  <diagram name="페이지-1" id="EcRWFTAwZawXJ_B6GhMB">
    <mxGraphModel dx="1744" dy="2678" grid="0" gridSize="10" guides="1" tooltips="1" connect="1" arrows="1" fold="1" page="1" pageScale="1" pageWidth="1169" pageHeight="1654" math="0" shadow="0">
      <root>
        <mxCell id="0" />
        <mxCell id="1" parent="0" />
        <mxCell id="ou2SRTkiECW-GHpdry6g-65" style="edgeStyle=orthogonalEdgeStyle;rounded=0;orthogonalLoop=1;jettySize=auto;html=1;entryX=0;entryY=0.5;entryDx=0;entryDy=0;" edge="1" parent="1" source="lct_QjtMk0k5qS95cAoG-1" target="ou2SRTkiECW-GHpdry6g-4">
          <mxGeometry relative="1" as="geometry" />
        </mxCell>
        <mxCell id="ou2SRTkiECW-GHpdry6g-66" style="edgeStyle=orthogonalEdgeStyle;rounded=0;orthogonalLoop=1;jettySize=auto;html=1;entryX=0;entryY=0.5;entryDx=0;entryDy=0;" edge="1" parent="1" source="lct_QjtMk0k5qS95cAoG-1" target="ou2SRTkiECW-GHpdry6g-12">
          <mxGeometry relative="1" as="geometry" />
        </mxCell>
        <mxCell id="ou2SRTkiECW-GHpdry6g-68" style="edgeStyle=orthogonalEdgeStyle;rounded=0;orthogonalLoop=1;jettySize=auto;html=1;entryX=0;entryY=0.5;entryDx=0;entryDy=0;" edge="1" parent="1" source="lct_QjtMk0k5qS95cAoG-1" target="ou2SRTkiECW-GHpdry6g-13">
          <mxGeometry relative="1" as="geometry" />
        </mxCell>
        <mxCell id="ou2SRTkiECW-GHpdry6g-69" style="edgeStyle=orthogonalEdgeStyle;rounded=0;orthogonalLoop=1;jettySize=auto;html=1;entryX=0;entryY=0.5;entryDx=0;entryDy=0;" edge="1" parent="1" source="lct_QjtMk0k5qS95cAoG-1" target="ou2SRTkiECW-GHpdry6g-15">
          <mxGeometry relative="1" as="geometry" />
        </mxCell>
        <mxCell id="ou2SRTkiECW-GHpdry6g-70" style="edgeStyle=orthogonalEdgeStyle;rounded=0;orthogonalLoop=1;jettySize=auto;html=1;entryX=0;entryY=0.5;entryDx=0;entryDy=0;" edge="1" parent="1" source="lct_QjtMk0k5qS95cAoG-1" target="ou2SRTkiECW-GHpdry6g-16">
          <mxGeometry relative="1" as="geometry" />
        </mxCell>
        <mxCell id="ou2SRTkiECW-GHpdry6g-71" style="edgeStyle=orthogonalEdgeStyle;rounded=0;orthogonalLoop=1;jettySize=auto;html=1;entryX=0;entryY=0.5;entryDx=0;entryDy=0;" edge="1" parent="1" source="lct_QjtMk0k5qS95cAoG-1" target="ou2SRTkiECW-GHpdry6g-22">
          <mxGeometry relative="1" as="geometry" />
        </mxCell>
        <mxCell id="ou2SRTkiECW-GHpdry6g-82" style="edgeStyle=orthogonalEdgeStyle;rounded=0;orthogonalLoop=1;jettySize=auto;html=1;entryX=0;entryY=0.5;entryDx=0;entryDy=0;" edge="1" parent="1" source="lct_QjtMk0k5qS95cAoG-1" target="ou2SRTkiECW-GHpdry6g-14">
          <mxGeometry relative="1" as="geometry" />
        </mxCell>
        <mxCell id="lct_QjtMk0k5qS95cAoG-1" value="Actor" style="shape=umlActor;verticalLabelPosition=bottom;verticalAlign=top;html=1;outlineConnect=0;" parent="1" vertex="1">
          <mxGeometry x="21" y="-652" width="30" height="60" as="geometry" />
        </mxCell>
        <mxCell id="lct_QjtMk0k5qS95cAoG-2" value="사용자" style="text;html=1;strokeColor=none;fillColor=none;align=center;verticalAlign=middle;whiteSpace=wrap;rounded=0;fontSize=16;" parent="1" vertex="1">
          <mxGeometry x="6" y="-572" width="60" height="30" as="geometry" />
        </mxCell>
        <mxCell id="ou2SRTkiECW-GHpdry6g-2" value="&lt;font style=&quot;font-size: 19px;&quot;&gt;Applicatoon&lt;/font&gt;" style="text;html=1;strokeColor=none;fillColor=none;align=center;verticalAlign=middle;whiteSpace=wrap;rounded=0;" vertex="1" parent="1">
          <mxGeometry x="436" y="-953" width="100" height="30" as="geometry" />
        </mxCell>
        <mxCell id="ou2SRTkiECW-GHpdry6g-4" value="회원가입" style="ellipse;whiteSpace=wrap;html=1;fillColor=none;" vertex="1" parent="1">
          <mxGeometry x="135" y="-890" width="110" height="57" as="geometry" />
        </mxCell>
        <mxCell id="ou2SRTkiECW-GHpdry6g-12" value="로그인" style="ellipse;whiteSpace=wrap;html=1;fillColor=none;" vertex="1" parent="1">
          <mxGeometry x="135" y="-810" width="110" height="57" as="geometry" />
        </mxCell>
        <mxCell id="ou2SRTkiECW-GHpdry6g-73" style="edgeStyle=orthogonalEdgeStyle;rounded=0;orthogonalLoop=1;jettySize=auto;html=1;entryX=0;entryY=0.5;entryDx=0;entryDy=0;" edge="1" parent="1" source="ou2SRTkiECW-GHpdry6g-13" target="ou2SRTkiECW-GHpdry6g-30">
          <mxGeometry relative="1" as="geometry" />
        </mxCell>
        <mxCell id="ou2SRTkiECW-GHpdry6g-13" value="오늘 하루 일기" style="ellipse;whiteSpace=wrap;html=1;fillColor=none;" vertex="1" parent="1">
          <mxGeometry x="135" y="-650" width="110" height="57" as="geometry" />
        </mxCell>
        <mxCell id="ou2SRTkiECW-GHpdry6g-72" style="edgeStyle=orthogonalEdgeStyle;rounded=0;orthogonalLoop=1;jettySize=auto;html=1;entryX=0;entryY=0.5;entryDx=0;entryDy=0;" edge="1" parent="1" source="ou2SRTkiECW-GHpdry6g-14" target="ou2SRTkiECW-GHpdry6g-30">
          <mxGeometry relative="1" as="geometry" />
        </mxCell>
        <mxCell id="ou2SRTkiECW-GHpdry6g-14" value="출석체크" style="ellipse;whiteSpace=wrap;html=1;fillColor=none;" vertex="1" parent="1">
          <mxGeometry x="135" y="-730" width="110" height="57" as="geometry" />
        </mxCell>
        <mxCell id="ou2SRTkiECW-GHpdry6g-75" style="edgeStyle=orthogonalEdgeStyle;rounded=0;orthogonalLoop=1;jettySize=auto;html=1;entryX=0;entryY=0.5;entryDx=0;entryDy=0;" edge="1" parent="1" source="ou2SRTkiECW-GHpdry6g-15" target="ou2SRTkiECW-GHpdry6g-30">
          <mxGeometry relative="1" as="geometry" />
        </mxCell>
        <mxCell id="ou2SRTkiECW-GHpdry6g-15" value="감사일기" style="ellipse;whiteSpace=wrap;html=1;fillColor=none;" vertex="1" parent="1">
          <mxGeometry x="135" y="-570" width="110" height="57" as="geometry" />
        </mxCell>
        <mxCell id="ou2SRTkiECW-GHpdry6g-76" style="edgeStyle=orthogonalEdgeStyle;rounded=0;orthogonalLoop=1;jettySize=auto;html=1;entryX=0;entryY=0.5;entryDx=0;entryDy=0;" edge="1" parent="1" source="ou2SRTkiECW-GHpdry6g-16" target="ou2SRTkiECW-GHpdry6g-30">
          <mxGeometry relative="1" as="geometry" />
        </mxCell>
        <mxCell id="ou2SRTkiECW-GHpdry6g-16" value="동물 키우기" style="ellipse;whiteSpace=wrap;html=1;fillColor=none;" vertex="1" parent="1">
          <mxGeometry x="135" y="-490" width="110" height="57" as="geometry" />
        </mxCell>
        <mxCell id="ou2SRTkiECW-GHpdry6g-22" value="To-do check list" style="ellipse;whiteSpace=wrap;html=1;fillColor=none;" vertex="1" parent="1">
          <mxGeometry x="135" y="-410" width="110" height="57" as="geometry" />
        </mxCell>
        <mxCell id="ou2SRTkiECW-GHpdry6g-30" value="리워드" style="ellipse;whiteSpace=wrap;html=1;fillColor=none;" vertex="1" parent="1">
          <mxGeometry x="322" y="-688" width="110" height="57" as="geometry" />
        </mxCell>
        <mxCell id="ou2SRTkiECW-GHpdry6g-39" value="include" style="text;html=1;strokeColor=none;fillColor=none;align=center;verticalAlign=middle;whiteSpace=wrap;rounded=0;" vertex="1" parent="1">
          <mxGeometry x="244.5" y="-700" width="37" height="20" as="geometry" />
        </mxCell>
        <mxCell id="ou2SRTkiECW-GHpdry6g-40" value="include" style="text;html=1;strokeColor=none;fillColor=none;align=center;verticalAlign=middle;whiteSpace=wrap;rounded=0;" vertex="1" parent="1">
          <mxGeometry x="241.5" y="-641" width="43" height="18" as="geometry" />
        </mxCell>
        <mxCell id="ou2SRTkiECW-GHpdry6g-41" value="include" style="text;html=1;strokeColor=none;fillColor=none;align=center;verticalAlign=middle;whiteSpace=wrap;rounded=0;" vertex="1" parent="1">
          <mxGeometry x="241.5" y="-559" width="43" height="20" as="geometry" />
        </mxCell>
        <mxCell id="ou2SRTkiECW-GHpdry6g-43" value="include" style="text;html=1;strokeColor=none;fillColor=none;align=center;verticalAlign=middle;whiteSpace=wrap;rounded=0;" vertex="1" parent="1">
          <mxGeometry x="244.5" y="-458" width="42" height="14" as="geometry" />
        </mxCell>
        <mxCell id="ou2SRTkiECW-GHpdry6g-46" value="오늘의 우울 정도" style="ellipse;whiteSpace=wrap;html=1;fillColor=none;" vertex="1" parent="1">
          <mxGeometry x="258" y="-306" width="110" height="57" as="geometry" />
        </mxCell>
        <mxCell id="ou2SRTkiECW-GHpdry6g-47" value="하루 권장 활동" style="ellipse;whiteSpace=wrap;html=1;fillColor=none;" vertex="1" parent="1">
          <mxGeometry x="135" y="-306" width="110" height="57" as="geometry" />
        </mxCell>
        <mxCell id="ou2SRTkiECW-GHpdry6g-50" value="" style="endArrow=classic;html=1;rounded=0;entryX=0.5;entryY=1;entryDx=0;entryDy=0;" edge="1" parent="1" source="ou2SRTkiECW-GHpdry6g-47" target="ou2SRTkiECW-GHpdry6g-22">
          <mxGeometry width="50" height="50" relative="1" as="geometry">
            <mxPoint x="184" y="-438" as="sourcePoint" />
            <mxPoint x="234" y="-488" as="targetPoint" />
          </mxGeometry>
        </mxCell>
        <mxCell id="ou2SRTkiECW-GHpdry6g-52" value="" style="endArrow=classic;html=1;rounded=0;entryX=0.5;entryY=1;entryDx=0;entryDy=0;exitX=0.5;exitY=0;exitDx=0;exitDy=0;" edge="1" parent="1" source="ou2SRTkiECW-GHpdry6g-46" target="ou2SRTkiECW-GHpdry6g-22">
          <mxGeometry width="50" height="50" relative="1" as="geometry">
            <mxPoint x="200" y="-296" as="sourcePoint" />
            <mxPoint x="200" y="-343" as="targetPoint" />
            <Array as="points">
              <mxPoint x="313" y="-326" />
              <mxPoint x="190" y="-325" />
            </Array>
          </mxGeometry>
        </mxCell>
        <mxCell id="ou2SRTkiECW-GHpdry6g-53" value="부모동의" style="ellipse;whiteSpace=wrap;html=1;fillColor=none;" vertex="1" parent="1">
          <mxGeometry x="322" y="-890" width="110" height="57" as="geometry" />
        </mxCell>
        <mxCell id="ou2SRTkiECW-GHpdry6g-55" value="Extends" style="endArrow=block;endSize=16;endFill=0;html=1;rounded=0;entryX=1;entryY=0.5;entryDx=0;entryDy=0;exitX=0;exitY=0.5;exitDx=0;exitDy=0;" edge="1" parent="1" source="ou2SRTkiECW-GHpdry6g-53" target="ou2SRTkiECW-GHpdry6g-4">
          <mxGeometry width="160" relative="1" as="geometry">
            <mxPoint x="272" y="-773" as="sourcePoint" />
            <mxPoint x="432" y="-773" as="targetPoint" />
          </mxGeometry>
        </mxCell>
        <mxCell id="ou2SRTkiECW-GHpdry6g-62" style="edgeStyle=orthogonalEdgeStyle;rounded=0;orthogonalLoop=1;jettySize=auto;html=1;exitX=0;exitY=0.5;exitDx=0;exitDy=0;entryX=1;entryY=0.5;entryDx=0;entryDy=0;" edge="1" parent="1" source="ou2SRTkiECW-GHpdry6g-56" target="ou2SRTkiECW-GHpdry6g-30">
          <mxGeometry relative="1" as="geometry" />
        </mxCell>
        <mxCell id="ou2SRTkiECW-GHpdry6g-56" value="유저상점" style="ellipse;whiteSpace=wrap;html=1;fillColor=none;" vertex="1" parent="1">
          <mxGeometry x="591" y="-867" width="110" height="57" as="geometry" />
        </mxCell>
        <mxCell id="ou2SRTkiECW-GHpdry6g-92" style="edgeStyle=orthogonalEdgeStyle;rounded=0;orthogonalLoop=1;jettySize=auto;html=1;entryX=0.5;entryY=1;entryDx=0;entryDy=0;" edge="1" parent="1" source="ou2SRTkiECW-GHpdry6g-85" target="ou2SRTkiECW-GHpdry6g-56">
          <mxGeometry relative="1" as="geometry" />
        </mxCell>
        <mxCell id="ou2SRTkiECW-GHpdry6g-85" value="게임화폐" style="ellipse;whiteSpace=wrap;html=1;fillColor=none;" vertex="1" parent="1">
          <mxGeometry x="527" y="-730" width="110" height="57" as="geometry" />
        </mxCell>
        <mxCell id="ou2SRTkiECW-GHpdry6g-93" style="edgeStyle=orthogonalEdgeStyle;rounded=0;orthogonalLoop=1;jettySize=auto;html=1;entryX=0.5;entryY=1;entryDx=0;entryDy=0;" edge="1" parent="1" source="ou2SRTkiECW-GHpdry6g-88" target="ou2SRTkiECW-GHpdry6g-56">
          <mxGeometry relative="1" as="geometry" />
        </mxCell>
        <mxCell id="ou2SRTkiECW-GHpdry6g-88" value="현금결제" style="ellipse;whiteSpace=wrap;html=1;fillColor=none;" vertex="1" parent="1">
          <mxGeometry x="655" y="-730" width="110" height="57" as="geometry" />
        </mxCell>
        <mxCell id="ou2SRTkiECW-GHpdry6g-116" style="edgeStyle=orthogonalEdgeStyle;rounded=0;orthogonalLoop=1;jettySize=auto;html=1;" edge="1" parent="1" source="ou2SRTkiECW-GHpdry6g-89" target="ou2SRTkiECW-GHpdry6g-85">
          <mxGeometry relative="1" as="geometry" />
        </mxCell>
        <mxCell id="ou2SRTkiECW-GHpdry6g-89" value="동물 옷" style="ellipse;whiteSpace=wrap;html=1;fillColor=none;" vertex="1" parent="1">
          <mxGeometry x="474" y="-589" width="110" height="57" as="geometry" />
        </mxCell>
        <mxCell id="ou2SRTkiECW-GHpdry6g-117" style="edgeStyle=orthogonalEdgeStyle;rounded=0;orthogonalLoop=1;jettySize=auto;html=1;entryX=0.5;entryY=1;entryDx=0;entryDy=0;" edge="1" parent="1" source="ou2SRTkiECW-GHpdry6g-90" target="ou2SRTkiECW-GHpdry6g-85">
          <mxGeometry relative="1" as="geometry" />
        </mxCell>
        <mxCell id="ou2SRTkiECW-GHpdry6g-119" style="edgeStyle=orthogonalEdgeStyle;rounded=0;orthogonalLoop=1;jettySize=auto;html=1;entryX=0.5;entryY=1;entryDx=0;entryDy=0;" edge="1" parent="1" source="ou2SRTkiECW-GHpdry6g-90" target="ou2SRTkiECW-GHpdry6g-88">
          <mxGeometry relative="1" as="geometry" />
        </mxCell>
        <mxCell id="ou2SRTkiECW-GHpdry6g-90" value="먹이" style="ellipse;whiteSpace=wrap;html=1;fillColor=none;" vertex="1" parent="1">
          <mxGeometry x="591" y="-589" width="110" height="57" as="geometry" />
        </mxCell>
        <mxCell id="ou2SRTkiECW-GHpdry6g-118" style="edgeStyle=orthogonalEdgeStyle;rounded=0;orthogonalLoop=1;jettySize=auto;html=1;entryX=0.5;entryY=1;entryDx=0;entryDy=0;" edge="1" parent="1" source="ou2SRTkiECW-GHpdry6g-91" target="ou2SRTkiECW-GHpdry6g-88">
          <mxGeometry relative="1" as="geometry" />
        </mxCell>
        <mxCell id="ou2SRTkiECW-GHpdry6g-91" value="배경음악" style="ellipse;whiteSpace=wrap;html=1;fillColor=none;" vertex="1" parent="1">
          <mxGeometry x="714.5" y="-589" width="110" height="57" as="geometry" />
        </mxCell>
        <mxCell id="ou2SRTkiECW-GHpdry6g-120" value="회원관리" style="ellipse;whiteSpace=wrap;html=1;fillColor=none;" vertex="1" parent="1">
          <mxGeometry x="589.25" y="-490" width="110" height="57" as="geometry" />
        </mxCell>
        <mxCell id="ou2SRTkiECW-GHpdry6g-121" style="edgeStyle=orthogonalEdgeStyle;rounded=0;orthogonalLoop=1;jettySize=auto;html=1;entryX=0.5;entryY=1;entryDx=0;entryDy=0;" edge="1" parent="1" source="ou2SRTkiECW-GHpdry6g-122" target="ou2SRTkiECW-GHpdry6g-120">
          <mxGeometry relative="1" as="geometry" />
        </mxCell>
        <mxCell id="ou2SRTkiECW-GHpdry6g-122" value="회원 조회" style="ellipse;whiteSpace=wrap;html=1;fillColor=none;" vertex="1" parent="1">
          <mxGeometry x="525.25" y="-371" width="110" height="57" as="geometry" />
        </mxCell>
        <mxCell id="ou2SRTkiECW-GHpdry6g-123" style="edgeStyle=orthogonalEdgeStyle;rounded=0;orthogonalLoop=1;jettySize=auto;html=1;entryX=0.5;entryY=1;entryDx=0;entryDy=0;" edge="1" parent="1" source="ou2SRTkiECW-GHpdry6g-124" target="ou2SRTkiECW-GHpdry6g-120">
          <mxGeometry relative="1" as="geometry" />
        </mxCell>
        <mxCell id="ou2SRTkiECW-GHpdry6g-124" value="회원 삭제" style="ellipse;whiteSpace=wrap;html=1;fillColor=none;" vertex="1" parent="1">
          <mxGeometry x="653.25" y="-371" width="110" height="57" as="geometry" />
        </mxCell>
        <mxCell id="ou2SRTkiECW-GHpdry6g-143" style="edgeStyle=orthogonalEdgeStyle;rounded=0;orthogonalLoop=1;jettySize=auto;html=1;" edge="1" parent="1" source="ou2SRTkiECW-GHpdry6g-126" target="ou2SRTkiECW-GHpdry6g-132">
          <mxGeometry relative="1" as="geometry">
            <Array as="points">
              <mxPoint x="524.25" y="-216" />
              <mxPoint x="644.25" y="-216" />
            </Array>
          </mxGeometry>
        </mxCell>
        <mxCell id="ou2SRTkiECW-GHpdry6g-126" value="상품 등록" style="ellipse;whiteSpace=wrap;html=1;fillColor=none;" vertex="1" parent="1">
          <mxGeometry x="469" y="-190" width="110" height="57" as="geometry" />
        </mxCell>
        <mxCell id="ou2SRTkiECW-GHpdry6g-141" style="edgeStyle=orthogonalEdgeStyle;rounded=0;orthogonalLoop=1;jettySize=auto;html=1;entryX=0.5;entryY=1;entryDx=0;entryDy=0;" edge="1" parent="1" source="ou2SRTkiECW-GHpdry6g-129" target="ou2SRTkiECW-GHpdry6g-132">
          <mxGeometry relative="1" as="geometry" />
        </mxCell>
        <mxCell id="ou2SRTkiECW-GHpdry6g-129" value="상품 수정" style="ellipse;whiteSpace=wrap;html=1;fillColor=none;" vertex="1" parent="1">
          <mxGeometry x="589.25" y="-190" width="110" height="57" as="geometry" />
        </mxCell>
        <mxCell id="ou2SRTkiECW-GHpdry6g-142" style="edgeStyle=orthogonalEdgeStyle;rounded=0;orthogonalLoop=1;jettySize=auto;html=1;entryX=0.5;entryY=1;entryDx=0;entryDy=0;" edge="1" parent="1" source="ou2SRTkiECW-GHpdry6g-131" target="ou2SRTkiECW-GHpdry6g-132">
          <mxGeometry relative="1" as="geometry">
            <Array as="points">
              <mxPoint x="764.25" y="-216" />
              <mxPoint x="644.25" y="-216" />
            </Array>
          </mxGeometry>
        </mxCell>
        <mxCell id="ou2SRTkiECW-GHpdry6g-131" value="상품 삭제" style="ellipse;whiteSpace=wrap;html=1;fillColor=none;" vertex="1" parent="1">
          <mxGeometry x="709.5" y="-190" width="110" height="57" as="geometry" />
        </mxCell>
        <mxCell id="ou2SRTkiECW-GHpdry6g-132" value="상점 관리" style="ellipse;whiteSpace=wrap;html=1;fillColor=none;" vertex="1" parent="1">
          <mxGeometry x="589.25" y="-298" width="110" height="57" as="geometry" />
        </mxCell>
        <mxCell id="ou2SRTkiECW-GHpdry6g-146" style="edgeStyle=orthogonalEdgeStyle;rounded=0;orthogonalLoop=1;jettySize=auto;html=1;entryX=1;entryY=0.5;entryDx=0;entryDy=0;" edge="1" parent="1" source="ou2SRTkiECW-GHpdry6g-144" target="ou2SRTkiECW-GHpdry6g-120">
          <mxGeometry relative="1" as="geometry" />
        </mxCell>
        <mxCell id="ou2SRTkiECW-GHpdry6g-147" style="edgeStyle=orthogonalEdgeStyle;rounded=0;orthogonalLoop=1;jettySize=auto;html=1;entryX=1;entryY=0.5;entryDx=0;entryDy=0;" edge="1" parent="1" source="ou2SRTkiECW-GHpdry6g-144" target="ou2SRTkiECW-GHpdry6g-132">
          <mxGeometry relative="1" as="geometry" />
        </mxCell>
        <mxCell id="ou2SRTkiECW-GHpdry6g-144" value="Actor" style="shape=umlActor;verticalLabelPosition=bottom;verticalAlign=top;html=1;outlineConnect=0;" vertex="1" parent="1">
          <mxGeometry x="899.25" y="-352.5" width="30" height="60" as="geometry" />
        </mxCell>
        <mxCell id="ou2SRTkiECW-GHpdry6g-145" value="관리자" style="text;html=1;strokeColor=none;fillColor=none;align=center;verticalAlign=middle;whiteSpace=wrap;rounded=0;fontSize=16;" vertex="1" parent="1">
          <mxGeometry x="884.25" y="-272.5" width="60" height="30" as="geometry" />
        </mxCell>
      </root>
    </mxGraphModel>
  </diagram>
</mxfile>
